<svg width="214" height="52" viewBox="0 0 214 52" fill="none" xmlns="http://www.w3.org/2000/svg">
<path d="M66.11 26.53C66.11 24.49 66.58 22.66 67.52 21.04C68.48 19.42 69.77 18.16 71.39 17.26C73.03 16.34 74.82 15.88 76.76 15.88C78.98 15.88 80.95 16.43 82.67 17.53C84.41 18.61 85.67 20.15 86.45 22.15H82.34C81.8 21.05 81.05 20.23 80.09 19.69C79.13 19.15 78.02 18.88 76.76 18.88C75.38 18.88 74.15 19.19 73.07 19.81C71.99 20.43 71.14 21.32 70.52 22.48C69.92 23.64 69.62 24.99 69.62 26.53C69.62 28.07 69.92 29.42 70.52 30.58C71.14 31.74 71.99 32.64 73.07 33.28C74.15 33.9 75.38 34.21 76.76 34.21C78.02 34.21 79.13 33.94 80.09 33.4C81.05 32.86 81.8 32.04 82.34 30.94H86.45C85.67 32.94 84.41 34.48 82.67 35.56C80.95 36.64 78.98 37.18 76.76 37.18C74.8 37.18 73.01 36.73 71.39 35.83C69.77 34.91 68.48 33.64 67.52 32.02C66.58 30.4 66.11 28.57 66.11 26.53ZM93.8731 14.8V37H90.4531V14.8H93.8731ZM105.533 37.27C103.973 37.27 102.563 36.92 101.303 36.22C100.043 35.5 99.0533 34.5 98.3333 33.22C97.6133 31.92 97.2533 30.42 97.2533 28.72C97.2533 27.04 97.6233 25.55 98.3633 24.25C99.1033 22.95 100.113 21.95 101.393 21.25C102.673 20.55 104.103 20.2 105.683 20.2C107.263 20.2 108.693 20.55 109.973 21.25C111.253 21.95 112.263 22.95 113.003 24.25C113.743 25.55 114.113 27.04 114.113 28.72C114.113 30.4 113.733 31.89 112.973 33.19C112.213 34.49 111.173 35.5 109.853 36.22C108.553 36.92 107.113 37.27 105.533 37.27ZM105.533 34.3C106.413 34.3 107.233 34.09 107.993 33.67C108.773 33.25 109.403 32.62 109.883 31.78C110.363 30.94 110.603 29.92 110.603 28.72C110.603 27.52 110.373 26.51 109.913 25.69C109.453 24.85 108.843 24.22 108.083 23.8C107.323 23.38 106.503 23.17 105.623 23.17C104.743 23.17 103.923 23.38 103.163 23.8C102.423 24.22 101.833 24.85 101.393 25.69C100.953 26.51 100.733 27.52 100.733 28.72C100.733 30.5 101.183 31.88 102.083 32.86C103.003 33.82 104.153 34.3 105.533 34.3ZM132.464 20.47V37H129.044V35.05C128.504 35.73 127.794 36.27 126.914 36.67C126.054 37.05 125.134 37.24 124.154 37.24C122.854 37.24 121.684 36.97 120.644 36.43C119.624 35.89 118.814 35.09 118.214 34.03C117.634 32.97 117.344 31.69 117.344 30.19V20.47H120.734V29.68C120.734 31.16 121.104 32.3 121.844 33.1C122.584 33.88 123.594 34.27 124.874 34.27C126.154 34.27 127.164 33.88 127.904 33.1C128.664 32.3 129.044 31.16 129.044 29.68V20.47H132.464ZM135.837 28.66C135.837 27 136.177 25.53 136.857 24.25C137.557 22.97 138.497 21.98 139.677 21.28C140.877 20.56 142.207 20.2 143.667 20.2C144.747 20.2 145.807 20.44 146.847 20.92C147.907 21.38 148.747 22 149.367 22.78V14.8H152.817V37H149.367V34.51C148.807 35.31 148.027 35.97 147.027 36.49C146.047 37.01 144.917 37.27 143.637 37.27C142.197 37.27 140.877 36.91 139.677 36.19C138.497 35.45 137.557 34.43 136.857 33.13C136.177 31.81 135.837 30.32 135.837 28.66ZM149.367 28.72C149.367 27.58 149.127 26.59 148.647 25.75C148.187 24.91 147.577 24.27 146.817 23.83C146.057 23.39 145.237 23.17 144.357 23.17C143.477 23.17 142.657 23.39 141.897 23.83C141.137 24.25 140.517 24.88 140.037 25.72C139.577 26.54 139.347 27.52 139.347 28.66C139.347 29.8 139.577 30.8 140.037 31.66C140.517 32.52 141.137 33.18 141.897 33.64C142.677 34.08 143.497 34.3 144.357 34.3C145.237 34.3 146.057 34.08 146.817 33.64C147.577 33.2 148.187 32.56 148.647 31.72C149.127 30.86 149.367 29.86 149.367 28.72ZM160.729 14.8V37H157.309V14.8H160.729ZM180.369 28.33C180.369 28.95 180.329 29.51 180.249 30.01H167.619C167.719 31.33 168.209 32.39 169.089 33.19C169.969 33.99 171.049 34.39 172.329 34.39C174.169 34.39 175.469 33.62 176.229 32.08H179.919C179.419 33.6 178.509 34.85 177.189 35.83C175.889 36.79 174.269 37.27 172.329 37.27C170.749 37.27 169.329 36.92 168.069 36.22C166.829 35.5 165.849 34.5 165.129 33.22C164.429 31.92 164.079 30.42 164.079 28.72C164.079 27.02 164.419 25.53 165.099 24.25C165.799 22.95 166.769 21.95 168.009 21.25C169.269 20.55 170.709 20.2 172.329 20.2C173.889 20.2 175.279 20.54 176.499 21.22C177.719 21.9 178.669 22.86 179.349 24.1C180.029 25.32 180.369 26.73 180.369 28.33ZM176.799 27.25C176.779 25.99 176.329 24.98 175.449 24.22C174.569 23.46 173.479 23.08 172.179 23.08C170.999 23.08 169.989 23.46 169.149 24.22C168.309 24.96 167.809 25.97 167.649 27.25H176.799ZM189.734 37.27C188.434 37.27 187.264 37.04 186.224 36.58C185.204 36.1 184.394 35.46 183.794 34.66C183.194 33.84 182.874 32.93 182.834 31.93H186.374C186.434 32.63 186.764 33.22 187.364 33.7C187.984 34.16 188.754 34.39 189.674 34.39C190.634 34.39 191.374 34.21 191.894 33.85C192.434 33.47 192.704 32.99 192.704 32.41C192.704 31.79 192.404 31.33 191.804 31.03C191.224 30.73 190.294 30.4 189.014 30.04C187.774 29.7 186.764 29.37 185.984 29.05C185.204 28.73 184.524 28.24 183.944 27.58C183.384 26.92 183.104 26.05 183.104 24.97C183.104 24.09 183.364 23.29 183.884 22.57C184.404 21.83 185.144 21.25 186.104 20.83C187.084 20.41 188.204 20.2 189.464 20.2C191.344 20.2 192.854 20.68 193.994 21.64C195.154 22.58 195.774 23.87 195.854 25.51H192.434C192.374 24.77 192.074 24.18 191.534 23.74C190.994 23.3 190.264 23.08 189.344 23.08C188.444 23.08 187.754 23.25 187.274 23.59C186.794 23.93 186.554 24.38 186.554 24.94C186.554 25.38 186.714 25.75 187.034 26.05C187.354 26.35 187.744 26.59 188.204 26.77C188.664 26.93 189.344 27.14 190.244 27.4C191.444 27.72 192.424 28.05 193.184 28.39C193.964 28.71 194.634 29.19 195.194 29.83C195.754 30.47 196.044 31.32 196.064 32.38C196.064 33.32 195.804 34.16 195.284 34.9C194.764 35.64 194.024 36.22 193.064 36.64C192.124 37.06 191.014 37.27 189.734 37.27ZM205.76 37.27C204.46 37.27 203.29 37.04 202.25 36.58C201.23 36.1 200.42 35.46 199.82 34.66C199.22 33.84 198.9 32.93 198.86 31.93H202.4C202.46 32.63 202.79 33.22 203.39 33.7C204.01 34.16 204.78 34.39 205.7 34.39C206.66 34.39 207.4 34.21 207.92 33.85C208.46 33.47 208.73 32.99 208.73 32.41C208.73 31.79 208.43 31.33 207.83 31.03C207.25 30.73 206.32 30.4 205.04 30.04C203.8 29.7 202.79 29.37 202.01 29.05C201.23 28.73 200.55 28.24 199.97 27.58C199.41 26.92 199.13 26.05 199.13 24.97C199.13 24.09 199.39 23.29 199.91 22.57C200.43 21.83 201.17 21.25 202.13 20.83C203.11 20.41 204.23 20.2 205.49 20.2C207.37 20.2 208.88 20.68 210.02 21.64C211.18 22.58 211.8 23.87 211.88 25.51H208.46C208.4 24.77 208.1 24.18 207.56 23.74C207.02 23.3 206.29 23.08 205.37 23.08C204.47 23.08 203.78 23.25 203.3 23.59C202.82 23.93 202.58 24.38 202.58 24.94C202.58 25.38 202.74 25.75 203.06 26.05C203.38 26.35 203.77 26.59 204.23 26.77C204.69 26.93 205.37 27.14 206.27 27.4C207.47 27.72 208.45 28.05 209.21 28.39C209.99 28.71 210.66 29.19 211.22 29.83C211.78 30.47 212.07 31.32 212.09 32.38C212.09 33.32 211.83 34.16 211.31 34.9C210.79 35.64 210.05 36.22 209.09 36.64C208.15 37.06 207.04 37.27 205.76 37.27Z" fill="#FA7275"/>
<rect opacity="0.2" width="48" height="48" rx="24" fill="#FA7275"/>
<rect x="21" y="20" width="32" height="32" rx="16" fill="#FA7275"/>
</svg>
